<svg preserveAspectRatio="none" overflow="visible" style="display: block;" width="78.4914" height="89.3666" viewBox="0 0 78.4914 89.3666" fill="none" xmlns="http://www.w3.org/2000/svg">
<path id="Vector 6" d="M78.2598 9.50513C78.7019 8.80454 78.4923 7.87819 77.7917 7.43609L66.3748 0.231648C65.6742 -0.210453 64.7479 -0.000898361 64.3058 0.6997C63.8637 1.4003 64.0732 2.32664 64.7738 2.76874L74.9222 9.17269L68.5182 19.3211C68.0761 20.0217 68.2857 20.948 68.9863 21.3901C69.6869 21.8322 70.6132 21.6226 71.0553 20.922L78.2598 9.50513ZM63.576 66.9888L62.1675 66.4731L63.576 66.9888ZM37.5359 68.3969L38.6951 67.4449L37.5359 68.3969ZM48.3263 75.1735L48.1369 76.6615L48.3263 75.1735ZM40.3575 44.0639L40.0463 42.5965L40.3575 44.0639ZM29.0253 46.4674L29.3365 47.9348L40.6687 45.5312L40.3575 44.0639L40.0463 42.5965L28.7141 45.0001L29.0253 46.4674ZM61.5111 53.9523L60.1857 54.6546L61.5348 57.2008L62.8602 56.4985L64.1856 55.7963L62.8366 53.2501L61.5111 53.9523ZM38.7589 69.886L39.9181 68.9339L38.6951 67.4449L37.5359 68.3969L36.3768 69.349L37.5998 70.838L38.7589 69.886ZM33.1126 57.2021L34.6095 57.1047L34.2307 51.2807L32.7338 51.378L31.237 51.4754L31.6158 57.2994L33.1126 57.2021ZM62.1012 12.073L62.4322 13.536L77.3222 10.1677L76.9912 8.70464L76.6603 7.24161L61.7702 10.61L62.1012 12.073ZM49.8134 75.3628L50.0028 73.8748L48.5157 73.6855L48.3263 75.1735L48.1369 76.6615L49.624 76.8508L49.8134 75.3628ZM1.49123 89.2046L2.98246 89.3666L4.49809 75.4125L3.00686 75.2505L1.51563 75.0885L0 89.0427L1.49123 89.2046ZM3.00686 75.2505L4.49809 75.4125C5.40518 67.0611 9.60286 59.4155 16.1623 54.1675L15.2252 52.9962L14.2881 51.825C7.10543 57.5716 2.5089 65.9437 1.51563 75.0885L3.00686 75.2505ZM63.576 66.9888L62.1675 66.4731C60.3358 71.476 55.2878 74.5474 50.0028 73.8748L49.8134 75.3628L49.624 76.8508C56.2976 77.7001 62.6716 73.8218 64.9846 67.5045L63.576 66.9888ZM32.7338 51.378L34.2307 51.2807C33.0726 33.4766 45.0302 17.4727 62.4322 13.536L62.1012 12.073L61.7702 10.61C42.9295 14.8721 29.9832 32.1993 31.237 51.4754L32.7338 51.378ZM37.5359 68.3969L38.6951 67.4449C36.2849 64.5105 34.856 60.894 34.6095 57.1047L33.1126 57.2021L31.6158 57.2994C31.903 61.7151 33.5682 65.9295 36.3768 69.349L37.5359 68.3969ZM38.7589 69.886L37.5998 70.838C40.2403 74.0528 44.0101 76.1362 48.1369 76.6615L48.3263 75.1735L48.5157 73.6855C45.1485 73.2569 42.0725 71.557 39.9181 68.9339L38.7589 69.886ZM62.8602 56.4985L61.5348 57.2008C63.0508 60.0621 63.2808 63.4324 62.1675 66.4731L63.576 66.9888L64.9846 67.5045C66.3904 63.665 66.0999 59.4092 64.1856 55.7963L62.8602 56.4985ZM40.3575 44.0639L40.6687 45.5312C48.4816 43.8741 56.4464 47.5973 60.1857 54.6546L61.5111 53.9523L62.8366 53.2501C58.4702 45.0091 49.1695 40.6615 40.0463 42.5965L40.3575 44.0639ZM29.0253 46.4674L28.7141 45.0001C23.439 46.1189 18.4987 48.4561 14.2881 51.825L15.2252 52.9962L16.1623 54.1675C20.0076 51.091 24.5192 48.9565 29.3365 47.9348L29.0253 46.4674Z" fill="#E79C9B"/>
</svg>
