<svg width="352" height="352" viewBox="0 0 352 352" fill="none" xmlns="http://www.w3.org/2000/svg">
<g clip-path="url(#clip0_134_988)">
<path d="M310.675 0H41.325C18.5018 0 0 18.5018 0 41.325V310.675C0 333.498 18.5018 352 41.325 352H310.675C333.498 352 352 333.498 352 310.675V41.325C352 18.5018 333.498 0 310.675 0Z" fill="#FBF7EE"/>
<path d="M164.638 50.5126L90.382 140.658C88.9452 142.407 88.5294 144.789 89.3044 146.916L137.747 279.823C138.324 281.411 139.505 282.696 141.027 283.424L197.296 309.938C199.905 311.167 203.024 310.495 204.895 308.293L255.833 248.442C256.977 247.09 257.516 245.332 257.317 243.574L242.288 111.583C242.109 109.995 241.334 108.53 240.133 107.481L173.769 49.7564C171.057 47.3933 166.916 47.7336 164.629 50.5126H164.638Z" fill="#6A7966"/>
<path d="M178.94 87.121L132.132 143.938C131.055 145.252 130.696 147.01 131.178 148.645L157.729 238.139C159.147 242.931 162.171 247.09 166.283 249.935L200.368 273.499C202.466 274.946 205.302 274.634 207.032 272.762L233.914 243.659C238.337 238.867 240.417 232.363 239.594 225.898L226.078 119.41C225.908 118.067 225.218 116.848 224.15 116.016L186.029 86.3459C183.845 84.6445 180.707 84.9942 178.94 87.1304V87.121Z" fill="#FBF7EE"/>
<path d="M133.115 141.292L179.989 145.942L222.146 113.247L225.709 115.714C227.307 116.82 228.356 118.55 228.592 120.478L229.273 125.96L189.328 157.464L210.538 271.59L207.646 274.842C205.907 276.798 202.967 277.139 200.822 275.626L195.651 271.987L173.278 159.875L130.232 155.243L128.427 149.742C128.049 148.579 128.295 147.303 129.079 146.358L133.125 141.282L133.115 141.292Z" fill="#6A7966"/>
<path d="M72.7536 110.175C64.9555 110.071 58.5848 117.963 58.5564 127.746C58.5753 117.963 52.2329 110.033 44.4348 110.08C52.2707 110.024 58.6037 102.046 58.6226 92.2157C58.6037 102.046 64.9083 110.061 72.7442 110.165L72.7536 110.175Z" fill="#6A7966"/>
<path d="M131.263 48.5276C126.489 48.4614 122.586 53.2915 122.576 59.2842C122.586 53.2915 118.71 48.4425 113.937 48.4709C118.729 48.4331 122.614 43.5558 122.623 37.5347C122.614 43.5558 126.47 48.4614 131.263 48.5182V48.5276Z" fill="#6A7966"/>
<path d="M300.637 258.073C295.098 257.998 290.57 263.603 290.551 270.56C290.57 263.603 286.061 257.97 280.522 258.017C286.09 257.979 290.589 252.308 290.608 245.322C290.599 252.308 295.069 258.007 300.637 258.073Z" fill="#6A7966"/>
<path d="M286.77 291.194C279.303 291.09 273.206 298.642 273.187 308.009C273.206 298.642 267.138 291.052 259.68 291.109C267.176 291.052 273.244 283.424 273.263 274.01C273.244 283.424 279.275 291.09 286.78 291.194H286.77Z" fill="#6A7966"/>
<path d="M75.2679 32.7708V32.6101C75.3435 45.9755 86.2041 56.7794 99.5695 56.7699C88.1229 56.751 78.4344 65.2296 76.9315 76.5723L75.2584 89.2666L73.6043 76.6006C72.1203 65.2391 62.4318 56.751 50.9663 56.7699H50.9568C64.3033 56.8739 75.1923 46.1173 75.2584 32.7708H75.2679Z" fill="#6A7A67"/>
<path d="M59.3188 268.959C51.5207 268.855 45.1499 276.748 45.1216 286.531C45.1405 276.748 38.7981 268.817 31 268.865C38.8359 268.808 45.1689 260.83 45.1878 251C45.1689 260.83 51.4735 268.846 59.3093 268.95L59.3188 268.959Z" fill="#6A7966"/>
</g>
<defs>
<clipPath id="clip0_134_988">
<rect width="352" height="352" fill="white"/>
</clipPath>
</defs>
</svg>
